[center][img]http://img193.imageshack.us/img193/9098/opkp7flm.jpg[/img]



[img]http://leetleech.org/images/48874973695367351744.png[/img]


Format                           : AVI
Format/Info                      : Audio Video Interleave
File size                        : 1.31 GiB
Duration                         : 1h 46mn
Overall bit rate                 : 1 764 Kbps
Writing library                  : VirtualDub build 32839/release

Video
ID                               : 0
Format                           : MPEG-4 Visual
Format profile                   : Advanced Simple@L5
Format settings, BVOP            : Yes
Format settings, QPel            : No
Format settings, GMC             : No warppoints
Format settings, Matrix          : Custom
Codec ID                         : XVID
Codec ID/Hint                    : XviD
Duration                         : 1h 46mn
Bit rate                         : 1 622 Kbps
Width                            : 640 pixels
Height                           : 480 pixels
Display aspect ratio             : 4:3
Frame rate                       : 29.970 fps
Color space                      : YUV
Chroma subsampling               : 4:2:0
Bit depth                        : 8 bits
Scan type                        : Progressive
Bits/(Pixel*Frame)               : 0.176
Stream size                      : 1.20 GiB (92%)
Writing library                  : XviD 1.2.1 (UTC 2008-12-04)

Audio
ID                               : 1
Format                           : MPEG Audio
Format version                   : Version 1
Format profile                   : Layer 3
Mode                             : Joint stereo
Mode extension                   : MS Stereo
Codec ID                         : 55
Codec ID/Hint                    : MP3
Duration                         : 1h 46mn
Bit rate mode                    : Constant
Bit rate                         : 128 Kbps
Channel(s)                       : 2 channels
Sampling rate                    : 44.1 KHz
Stream size                      : 97.2 MiB (7%)
Alignment                        : Aligned on interleaves
Interleave, duration             : 26 ms (0.78 video frame)
Interleave, preload duration     : 522 ms
Writing library                  : LAME3.98.2




[url]http://www.imdb.com/title/tt1411238/[/url]




[IMG]http://leetleech.org/images/89524873606771859129.png[/IMG]


Users: 6.3/10 (8,535 votes) 65 reviews | Critics: 171 reviews Metascore: 50/100 (based on 36 reviews from Metacritic.com)

A guy and girl try to keep their relationship strictly physical, but it\'s not long before they learn that they want something more.
Director:
Ivan Reitman
Writers:
Elizabeth Meriwether (screenplay), Michael Samonek (story), and 1 more credit »
Stars:
Natalie Portman, Ashton Kutcher and Kevin Klin



[img]http://leetleech.org/images/95521316153253938506.png[/img]




[img]http://img808.imageshack.us/img808/8486/vlcsnap2011040911h00m49.png[/img]

[img]http://img842.imageshack.us/img842/8688/vlcsnap2011040911h00m25.png[/img]

[img]http://img29.imageshack.us/img29/1443/vlcsnap2011040911h01m09.png[/img]


Video and audio source ............ IFLiX ............ Thanks 

Near enough same work done on this denoise,rgb colours ,slightest smoother cropped out borders and resize ....

Enjoy !




Greetz to Imagine ,Flawl3ss,DiLLoN,BDK,NOiR,TOXiCiNK,THC,Ez,Rx,Boobyblue

[img]http://img411.imageshack.us/img411/6898/sig1n.jpg[/img]




